HIERARCHY
ROOT Hips
{
	OFFSET 0.000000 0.000000 0.000000
	CHANNELS 6 Xposition Yposition Zposition Xrotation Yrotation Zrotation
	JOINT LeftHipJoint
	{
		OFFSET 0.100000 0.000000 0.000000
		CHANNELS 6 Xposition Yposition Zposition Xrotation Yrotation Zrotation
		JOINT LeftUpLeg
		{
			OFFSET 0.107972 0.000000 0.000000
			CHANNELS 6 Xposition Yposition Zposition Xrotation Yrotation Zrotation
			JOINT LeftLeg
			{
				OFFSET 0.000000 0.000000 -0.351231
				CHANNELS 6 Xposition Yposition Zposition Xrotation Yrotation Zrotation
				JOINT LeftFoot
				{
					OFFSET 0.000000 0.000000 -0.469094
					CHANNELS 6 Xposition Yposition Zposition Xrotation Yrotation Zrotation
					End Site
					{
						OFFSET 0.000000 -0.100000 0.000000
					}
				}
			}
		}
	}
	JOINT LowerBack
	{
		OFFSET 0.000000 0.000000 0.100000
		CHANNELS 6 Xposition Yposition Zposition Xrotation Yrotation Zrotation
		JOINT Spine
		{
			OFFSET 0.000000 0.000000 0.194444
			CHANNELS 6 Xposition Yposition Zposition Xrotation Yrotation Zrotation
			JOINT Spine1
			{
				OFFSET 0.000000 0.000000 0.227222
				CHANNELS 6 Xposition Yposition Zposition Xrotation Yrotation Zrotation
				JOINT LeftShoulder
				{
					OFFSET 0.100000 0.000000 0.000000
					CHANNELS 6 Xposition Yposition Zposition Xrotation Yrotation Zrotation
					JOINT LeftArm
					{
						OFFSET 0.123584 0.000000 0.000000
						CHANNELS 6 Xposition Yposition Zposition Xrotation Yrotation Zrotation
						JOINT LeftForeArm
						{
							OFFSET 0.229562 0.000000 0.000000
							CHANNELS 6 Xposition Yposition Zposition Xrotation Yrotation Zrotation
							JOINT LeftHand
							{
								OFFSET 0.160834 0.000000 0.000000
								CHANNELS 6 Xposition Yposition Zposition Xrotation Yrotation Zrotation
								End Site
								{
									OFFSET 0.100000 0.000000 0.000000
								}
							}
						}
					}
				}
				JOINT Neck
				{
					OFFSET 0.000000 0.000000 0.100000
					CHANNELS 6 Xposition Yposition Zposition Xrotation Yrotation Zrotation
					JOINT Neck1
					{
						OFFSET 0.000000 0.000000 0.161555
						CHANNELS 6 Xposition Yposition Zposition Xrotation Yrotation Zrotation
						End Site
						{
							OFFSET 0.000000 0.000000 0.081267
						}
					}
				}
				JOINT RightShoulder
				{
					OFFSET -0.100000 0.000000 0.000000
					CHANNELS 6 Xposition Yposition Zposition Xrotation Yrotation Zrotation
					JOINT RightArm
					{
						OFFSET -0.123584 0.000000 0.000000
						CHANNELS 6 Xposition Yposition Zposition Xrotation Yrotation Zrotation
						JOINT RightForeArm
						{
							OFFSET -0.229562 0.000000 0.000000
							CHANNELS 6 Xposition Yposition Zposition Xrotation Yrotation Zrotation
							JOINT RightHand
							{
								OFFSET -0.160834 0.000000 0.000000
								CHANNELS 6 Xposition Yposition Zposition Xrotation Yrotation Zrotation
								End Site
								{
									OFFSET -0.100000 0.000000 0.000000
								}
							}
						}
					}
				}
			}
		}
	}
	JOINT RightHipJoint
	{
		OFFSET -0.100000 0.000000 0.000000
		CHANNELS 6 Xposition Yposition Zposition Xrotation Yrotation Zrotation
		JOINT RightUpLeg
		{
			OFFSET -0.107972 0.000000 0.000000
			CHANNELS 6 Xposition Yposition Zposition Xrotation Yrotation Zrotation
			JOINT RightLeg
			{
				OFFSET 0.000000 0.000000 -0.351231
				CHANNELS 6 Xposition Yposition Zposition Xrotation Yrotation Zrotation
				JOINT RightFoot
				{
					OFFSET 0.000000 0.000000 -0.469094
					CHANNELS 6 Xposition Yposition Zposition Xrotation Yrotation Zrotation
					End Site
					{
						OFFSET 0.000000 -0.100000 0.000000
					}
				}
			}
		}
	}
}
MOTION
Frames: 7
Frame Time: 0.041667
0.000000 0.000000 0.000000 9.757345 -2.054445 -0.000003 0.100000 -0.000000 0.000000 0.000001 0.000000 -0.000000 0.107972 0.000000 -0.000000 -83.535707 -3.442448 6.706917 0.000000 0.000000 -0.351231 112.532441 16.826345 -1.082506 -0.000000 0.000000 -0.469094 -0.000005 0.000003 0.000000 0.000000 -0.000000 0.100000 0.000001 0.000000 -0.000000 0.000000 -0.000000 0.194444 0.416686 -32.024213 -0.018035 0.000000 0.000000 0.227222 -0.000002 -0.000000 17.027699 0.100000 -0.000000 -0.000000 0.000001 0.000002 -0.000000 0.123584 0.000000 0.000000 -73.219416 32.096326 16.471182 0.229562 -0.000000 0.000000 -0.000001 -0.000001 -29.931958 0.160834 0.000000 0.000000 0.000001 -0.000000 -0.000004 0.000000 0.000000 0.100000 -0.000000 0.000001 0.000001 -0.000000 0.000000 0.161555 64.622305 10.608687 8.006742 -0.100000 0.000000 0.000000 0.000001 0.000002 0.000000 -0.123584 -0.000000 0.000000 -27.988734 1.337415 59.827724 -0.229562 -0.000000 0.000000 0.000004 0.000002 28.535038 -0.160834 0.000000 0.000000 0.000003 -0.000000 0.000001 -0.100000 0.000000 -0.000000 0.000001 0.000000 -0.000000 -0.107972 0.000000 -0.000000 -53.209574 4.092008 -4.160830 -0.000000 0.000000 -0.351231 83.211300 19.177583 3.204604 0.000000 -0.000000 -0.469094 0.000001 -0.000000 -0.000000 
0.000000 0.000000 0.000000 9.837091 -1.998046 0.000001 0.100000 0.000000 -0.000000 -0.000000 0.000000 0.000000 0.107972 0.000000 -0.000000 -83.628590 -3.477587 6.644231 0.000000 0.000000 -0.351231 112.592185 16.850328 -1.088043 -0.000000 -0.000000 -0.469094 0.000003 -0.000001 -0.000002 0.000000 0.000000 0.100000 -0.000000 0.000000 0.000000 0.000000 0.000000 0.194444 0.493440 -31.984512 -0.020748 0.000000 0.000000 0.227222 0.000002 -0.000001 17.012912 0.100000 -0.000000 0.000000 0.000000 0.000002 -0.000001 0.123584 0.000000 -0.000000 -72.877804 32.060365 16.204853 0.229562 -0.000000 0.000000 0.000000 0.000001 -29.772767 0.160834 -0.000000 -0.000000 -0.000002 0.000001 0.000000 0.000000 -0.000000 0.100000 0.000000 0.000001 -0.000001 0.000000 0.000000 0.161555 64.401499 10.626138 8.185372 -0.100000 -0.000000 -0.000000 0.000000 0.000002 -0.000001 -0.123584 -0.000000 0.000000 -27.909734 1.591657 59.911366 -0.229562 -0.000000 0.000000 -0.000001 0.000000 28.738912 -0.160834 -0.000000 -0.000000 0.000001 0.000002 -0.000001 -0.100000 -0.000000 0.000000 -0.000000 0.000000 0.000000 -0.107972 0.000000 0.000000 -53.033673 4.235818 -4.213176 -0.000000 0.000000 -0.351231 82.825422 19.114368 3.387395 -0.000000 0.000000 -0.469094 0.000001 0.000002 -0.000001 
0.000000 0.000000 0.000000 9.919209 -1.944195 -0.000001 0.100000 -0.000000 0.000000 -0.000000 0.000000 -0.000000 0.107972 0.000000 -0.000000 -83.721986 -3.510174 6.586535 0.000000 0.000000 -0.351231 112.652844 16.871482 -1.089348 -0.000000 0.000000 -0.469094 -0.000000 0.000002 -0.000000 -0.000000 -0.000000 0.100000 0.000000 0.000000 -0.000000 0.000000 -0.000000 0.194444 0.574773 -31.939713 -0.023488 0.000000 0.000000 0.227222 0.000002 0.000001 16.992442 0.100000 0.000000 0.000000 0.000000 0.000008 -0.000000 0.123584 0.000000 0.000000 -72.527552 32.016225 15.942529 0.229562 -0.000000 0.000000 -0.000004 -0.000001 -29.621380 0.160834 -0.000000 0.000000 0.000001 -0.000000 0.000002 -0.000000 0.000000 0.100000 0.000000 0.000006 0.000001 -0.000000 0.000000 0.161555 64.160304 10.643654 8.369085 -0.100000 0.000000 0.000000 0.000000 0.000008 0.000000 -0.123584 -0.000000 0.000000 -27.834749 1.846129 59.998376 -0.229562 -0.000000 0.000000 0.000002 -0.000003 28.951007 -0.160834 -0.000000 0.000000 -0.000003 0.000003 0.000000 -0.100000 0.000000 -0.000000 -0.000000 0.000000 -0.000000 -0.107972 0.000000 -0.000000 -52.839819 4.394796 -4.266998 0.000000 -0.000000 -0.351231 82.411451 19.044685 3.584709 -0.000000 -0.000000 -0.469094 0.000000 0.000001 -0.000000 
0.000000 0.000000 0.000000 10.016125 -1.888082 -0.000000 0.100000 -0.000000 0.000000 -0.000000 -0.000000 -0.000000 0.107972 0.000000 -0.000000 -83.825218 -3.540610 6.538470 0.000000 -0.000000 -0.351231 112.709261 16.881099 -1.101621 -0.000000 -0.000000 -0.469094 0.000001 -0.000002 -0.000000 -0.000000 0.000000 0.100000 -0.000000 -0.000000 -0.000000 0.000000 0.000000 0.194444 0.658498 -31.893835 -0.026103 0.000000 0.000000 0.227222 0.000000 -0.000002 16.966398 0.100000 -0.000000 0.000000 0.000001 0.000003 -0.000001 0.123584 0.000000 -0.000000 -72.146428 31.962700 15.668763 0.229562 -0.000000 0.000000 0.000004 -0.000001 -29.471590 0.160834 -0.000000 0.000000 0.000001 0.000000 -0.000002 0.000000 -0.000000 0.100000 0.000001 0.000004 -0.000001 -0.000000 0.000000 0.161555 63.894760 10.662654 8.565043 -0.100000 -0.000000 -0.000000 0.000001 0.000003 -0.000000 -0.123584 -0.000000 0.000000 -27.767403 2.106696 60.092687 -0.229562 -0.000000 0.000000 -0.000001 0.000003 29.175218 -0.160834 0.000000 0.000000 -0.000002 -0.000001 0.000000 -0.100000 0.000000 -0.000000 -0.000000 -0.000000 -0.000000 -0.107972 0.000000 -0.000000 -52.627229 4.571262 -4.327051 -0.000000 -0.000000 -0.351231 81.950611 18.962929 3.824307 -0.000000 -0.000000 -0.469094 0.000001 -0.000001 0.000000 
0.000000 0.000000 0.000000 10.112490 -1.838487 0.000003 0.100000 -0.000000 0.000000 -0.000001 -0.000000 0.000000 0.107972 0.000000 -0.000000 -83.920963 -3.565465 6.503015 0.000000 0.000000 -0.351231 112.765467 16.885636 -1.098071 -0.000000 -0.000000 -0.469094 -0.000001 -0.000002 -0.000001 -0.000000 -0.000000 0.100000 -0.000001 -0.000000 0.000000 0.000000 0.000000 0.194444 0.752614 -31.843141 -0.029016 -0.000000 0.000000 0.227222 -0.000001 -0.000006 16.935796 0.100000 0.000000 -0.000000 -0.000001 0.000005 0.000001 0.123584 0.000000 0.000000 -71.739362 31.903295 15.392890 0.229562 -0.000000 0.000000 -0.000000 -0.000000 -29.328450 0.160834 -0.000000 -0.000000 -0.000002 -0.000001 -0.000002 -0.000000 0.000000 0.100000 -0.000001 -0.000000 0.000001 0.000000 0.000000 0.161555 63.599648 10.681481 8.763496 -0.100000 0.000000 -0.000000 -0.000001 0.000005 0.000001 -0.123584 0.000000 0.000000 -27.704711 2.372919 60.190434 -0.229562 -0.000000 0.000000 -0.000005 0.000001 29.412386 -0.160834 0.000000 0.000000 0.000001 0.000002 -0.000000 -0.100000 0.000000 -0.000000 -0.000001 -0.000000 0.000000 -0.107972 0.000000 -0.000000 -52.374970 4.776498 -4.393212 0.000000 -0.000000 -0.351231 81.440191 18.874593 4.083378 0.000000 -0.000000 -0.469094 -0.000002 -0.000003 0.000001 
0.000000 0.000000 0.000000 10.216784 -1.790045 -0.000000 0.100000 0.000000 0.000000 0.000001 -0.000000 -0.000000 0.107972 0.000000 -0.000000 -84.016067 -3.587572 6.470052 0.000000 -0.000000 -0.351231 112.819842 16.888063 -1.092019 0.000000 -0.000000 -0.469094 -0.000001 -0.000002 0.000001 -0.000000 -0.000000 0.100000 0.000001 -0.000000 -0.000000 0.000000 0.000000 0.194444 0.853124 -31.793649 -0.031988 -0.000000 0.000000 0.227222 0.000001 0.000004 16.903091 0.100000 0.000000 0.000000 0.000001 0.000002 -0.000001 0.123584 0.000000 -0.000000 -71.306280 31.839234 15.113605 0.229562 -0.000000 0.000000 -0.000003 -0.000001 -29.196627 0.160834 0.000000 0.000000 -0.000000 -0.000001 -0.000002 -0.000000 0.000000 0.100000 0.000001 -0.000000 -0.000000 0.000000 0.000000 0.161555 63.276635 10.699995 8.960465 -0.100000 0.000000 -0.000000 0.000001 0.000002 -0.000001 -0.123584 -0.000000 0.000000 -27.645430 2.647306 60.291876 -0.229562 -0.000000 0.000000 -0.000004 0.000003 29.664389 -0.160834 -0.000000 0.000000 -0.000003 -0.000001 -0.000001 -0.100000 0.000000 -0.000000 0.000001 -0.000000 -0.000000 -0.107972 0.000000 -0.000000 -52.089273 5.007865 -4.460338 0.000000 0.000000 -0.351231 80.874194 18.766710 4.370987 0.000000 0.000000 -0.469094 0.000000 -0.000001 -0.000001 
0.000000 0.000000 0.000000 10.323304 -1.745469 0.000002 0.100000 -0.000000 0.000000 0.000002 -0.000000 -0.000000 0.107972 0.000000 -0.000000 -84.101690 -3.606084 6.433862 0.000000 -0.000000 -0.351231 112.872769 16.896565 -1.074399 0.000000 -0.000000 -0.469094 0.000003 0.000001 -0.000001 -0.000000 -0.000000 0.100000 0.000001 -0.000000 -0.000000 0.000000 -0.000000 0.194444 0.962128 -31.743762 -0.035138 0.000000 -0.000000 0.227222 0.000001 -0.000000 16.870627 0.100000 0.000000 -0.000000 0.000000 0.000003 -0.000001 0.123584 0.000000 -0.000000 -70.859026 31.774477 14.844718 0.229562 -0.000000 0.000000 0.000002 -0.000002 -29.091879 0.160834 -0.000000 0.000000 0.000004 -0.000000 -0.000001 0.000000 0.000000 0.100000 -0.000000 0.000007 -0.000000 0.000000 0.000000 0.161555 62.921280 10.715499 9.150587 -0.100000 0.000000 0.000000 0.000000 0.000003 -0.000000 -0.123584 -0.000000 0.000000 -27.591475 2.912622 60.390197 -0.229562 -0.000000 0.000000 0.000000 0.000001 29.931477 -0.160834 -0.000000 -0.000000 -0.000000 -0.000003 0.000001 -0.100000 0.000000 -0.000000 0.000002 -0.000000 -0.000000 -0.107972 0.000000 -0.000000 -51.761144 5.273058 -4.523554 0.000000 -0.000000 -0.351231 80.252325 18.632049 4.678638 0.000000 0.000000 -0.469094 0.000001 -0.000001 0.000000 
